:SAMPLES-PER-SECOND 30
:FULLY-SPECIFIED
:DEGREES
501
root  -34.4843 37.4987 -5.85907 16.579 -72.5929 9.6781
RightUpLeg  -64.6294 -21.3301 17.0636
RightLeg  26.2535 3.57296 1.688
RightFoot  8.47672 1.5308 -8.40564
RightToes  2.91037e-010 0 -3.6325e-017
Spine  73.6357 -9.54894 1.69682
Spine1  10.9207 -3.23456 -16.802
HEad  -39.4235 3.93367 6.88529
LeftShoulder1  1.14577 -13.2307 1.79137
LeftArm  -78.3341 -63.809 30.2907
LeftForeArm  -14.9942 2.19722 1.77061
LeftHand  -0.244104 0.0205437 5.32207
RightShoulder  0.860648 19.7363 -5.3814
RightArm  -76.4453 58.6207 -9.9606
RightForeArm  -16.8489 0.602252 -3.82954
RightHand  1.22237 6.97817 11.0587
LeftUpLeg  -64.264 13.0854 -11.9017
LeftLeg  42.583 7.44756 7.64465
LeftFoot  -10.4966 0.0640024 -0.492897
LeftToes  -1.10052e-010 1.3781e-010 -2.1811e-011
502
root  -33.6726 37.3926 -5.98114 17.162 -72.3495 8.1561
RightUpLeg  -64.2742 -22.0617 18.4661
RightLeg  24.0558 4.60778 2.00991
RightFoot  10.3424 1.78074 -8.90725
RightToes  2.91037e-010 0 -3.6325e-017
Spine  73.1742 -9.50288 2.16297
Spine1  10.8794 -3.28381 -16.5407
HEad  -39.4852 4.08715 6.80573
LeftShoulder1  1.17033 -13.2125 1.61775
LeftArm  -76.5654 -64.3106 28.8269
LeftForeArm  -15.5534 3.59183 1.55815
LeftHand  -0.244104 0.0205437 5.32207
RightShoulder  0.822284 19.7156 -5.56599
RightArm  -76.918 59.1504 -10.2595
RightForeArm  -15.1297 -0.164798 -4.14134
RightHand  1.30556 6.09768 12.7792
LeftUpLeg  -62.7251 11.7046 -9.70786
LeftLeg  49.1382 6.86935 8.85637
LeftFoot  -9.00452 0.0609977 -0.0811711
LeftToes  -1.10052e-010 1.3781e-010 -2.1811e-011
503
root  -32.7998 37.2511 -6.03041 17.6604 -72.5893 6.94395
RightUpLeg  -64.3086 -22.8459 20.0156
RightLeg  21.8546 5.59109 2.31387
RightFoot  11.984 1.65725 -7.62986
RightToes  2.91037e-010 0 -3.6325e-017
Spine  72.7021 -9.22476 2.47816
Spine1  10.6748 -3.2442 -16.3258
HEad  -39.7993 4.02839 6.58643
LeftShoulder1  1.29399 -13.5281 0.940211
LeftArm  -74.9058 -64.6043 27.3738
LeftForeArm  -15.5855 4.43824 1.37081
LeftHand  -0.244104 0.0205437 5.32207
RightShoulder  0.754716 20.0051 -5.94386
RightArm  -76.5443 59.1018 -9.97236
RightForeArm  -13.418 -0.730014 -4.33867
RightHand  1.42695 5.43314 14.8717
LeftUpLeg  -60.2325 10.8446 -8.62925
LeftLeg  53.6747 6.04559 9.23853
LeftFoot  -6.90598 0.116136 -2.00449
LeftToes  -1.10052e-010 1.3781e-010 -2.1811e-011
504
root  -31.8663 37.1143 -6.01715 16.9335 -73.0224 7.07802
RightUpLeg  -63.682 -23.1618 19.4324
RightLeg  19.2427 5.13516 2.82413
RightFoot  13.0275 0.962286 -4.05374
RightToes  2.91037e-010 0 -3.6325e-017
Spine  72.4238 -9.14959 2.36976
Spine1  10.7451 -3.05852 -16.8488
HEad  -40.1412 3.74903 5.89129
LeftShoulder1  1.40675 -13.8105 0.339055
LeftArm  -73.3455 -64.658 25.5675
LeftForeArm  -14.9294 4.49474 1.30717
LeftHand  -0.244104 0.0205437 5.32207
RightShoulder  0.651911 20.312 -6.48538
RightArm  -75.8098 58.9938 -9.23251
RightForeArm  -12.9033 -1.02236 -4.39451
RightHand  1.45814 4.73479 16.2779
LeftUpLeg  -56.3594 10.2971 -9.09372
LeftLeg  54.1077 5.92817 9.2145
LeftFoot  -8.37172 0.151195 -3.96523
LeftToes  -1.10052e-010 1.3781e-010 -2.1811e-011
505
root  -30.8716 36.9987 -5.96637 15.7875 -73.0834 7.72772
RightUpLeg  -61.6389 -22.7104 15.4807
RightLeg  16.2596 2.02986 3.92856
RightFoot  11.777 -0.351841 2.2026
RightToes  2.91037e-010 0 -3.6325e-017
Spine  72.5184 -9.5842 2.11606
Spine1  11.1598 -2.84189 -17.9568
HEad  -40.1695 3.7221 4.99202
LeftShoulder1  1.38727 -13.7899 0.458005
LeftArm  -71.7658 -64.4639 23.8582
LeftForeArm  -14.7634 4.62434 1.27803
LeftHand  -0.244104 0.0205437 5.32207
RightShoulder  0.559853 20.3057 -6.92572
RightArm  -75.5746 59.4831 -8.75372
RightForeArm  -13.6469 -1.2811 -4.37944
RightHand  1.34465 3.88037 16.4371
LeftUpLeg  -52.9012 10.043 -10.7205
LeftLeg  50.9955 6.61005 9.12547
LeftFoot  -13.657 0.0487488 -2.55631
LeftToes  -1.10052e-010 1.3781e-010 -2.1811e-011
506
root  -29.7983 36.883 -5.95259 16.0409 -72.6492 7.00146
RightUpLeg  -59.1525 -22.4443 11.3084
RightLeg  13.3505 -2.97951 5.11452
RightFoot  6.98085 -1.66504 10.7914
RightToes  2.91037e-010 0 -3.6325e-017
Spine  72.6904 -10.1779 2.18563
Spine1  11.2788 -2.83021 -18.6688
HEad  -40.0023 4.15654 4.54705
LeftShoulder1  1.24893 -13.6448 1.29676
LeftArm  -70.7511 -64.1014 23.5545
LeftForeArm  -15.8849 5.31337 1.14034
LeftHand  -0.244104 0.0205437 5.32207
RightShoulder  0.472212 20.0977 -7.32528
RightArm  -76.0486 60.303 -8.99855
RightForeArm  -14.5521 -1.82781 -4.45944
RightHand  1.22471 3.33209 15.9514
LeftUpLeg  -51.9444 10.4882 -12.3842
LeftLeg  47.4599 7.20747 8.77118
LeftFoot  -17.3334 0.18033 1.68047
LeftToes  -1.10052e-010 1.3781e-010 -2.1811e-011
507
root  -28.7074 36.8084 -6.03577 16.4878 -72.06 6.18774
RightUpLeg  -57.0442 -22.8769 8.50641
RightLeg  10.8541 -9.81579 5.73636
RightFoot  0.399673 -1.88766 18.0431
RightToes  2.91037e-010 0 -3.6325e-017
Spine  72.7516 -10.4166 2.17512
Spine1  11.1718 -2.9057 -18.8218
HEad  -39.9978 4.60739 4.65015
LeftShoulder1  1.09552 -13.6667 2.32323
LeftArm  -71.1945 -63.6448 25.261
LeftForeArm  -17.4887 5.32277 0.881013
LeftHand  -0.244104 0.0205437 5.32207
RightShoulder  0.337732 19.9692 -7.9663
RightArm  -77.0984 60.7168 -9.7595
RightForeArm  -15.2261 -2.58769 -4.80685
RightHand  1.19818 3.26506 15.7284
LeftUpLeg  -53.2139 11.7602 -14.0816
LeftLeg  45.6037 6.66259 7.64993
LeftFoot  -16.1643 0.324474 5.52429
LeftToes  -1.10052e-010 1.3781e-010 -2.1811e-011
508
root  -27.6399 36.8073 -6.18858 16.237 -71.8836 6.18111
RightUpLeg  -58.864 -25.9217 12.1438
RightLeg  11.7741 -11.1704 4.16744
RightFoot  -4.23501 -1.2113 18.6193
RightToes  2.91037e-010 0 -3.6325e-017
Spine  72.7769 -10.2452 1.92415
Spine1  11.582 -2.73057 -19.1028
HEad  -40.1034 4.69151 4.65378
LeftShoulder1  0.988549 -13.7875 3.08042
LeftArm  -72.9944 -63.0982 27.9452
LeftForeArm  -18.3377 5.29042 0.952278
LeftHand  -0.244104 0.0205437 5.32207
RightShoulder  0.164171 19.842 -8.8073
RightArm  -78.7883 60.7746 -10.4229
RightForeArm  -16.3737 -3.19409 -5.47955
RightHand  1.18556 3.20398 15.6756
LeftUpLeg  -54.8988 13.7436 -16.1058
LeftLeg  44.5885 5.02202 5.70105
LeftFoot  -12.8711 0.181358 7.61097
LeftToes  -1.10052e-010 1.3781e-010 -2.1811e-011
509
root  -26.562 36.9134 -6.36 16.647 -72.1287 5.49803
RightUpLeg  -64.899 -29.7102 20.7281
RightLeg  18.3881 -4.21956 -0.258017
RightFoot  -5.05294 -0.788827 13.8588
RightToes  2.91037e-010 0 -3.6325e-017
Spine  72.7846 -10.088 1.97449
Spine1  12.4564 -2.33799 -19.7873
HEad  -40.0353 4.69808 4.18267
LeftShoulder1  0.918994 -13.6705 3.49744
LeftArm  -74.7123 -62.5671 30.0626
LeftForeArm  -18.4606 5.18312 1.17022
LeftHand  -0.244104 0.0205437 5.32207
RightShoulder  0.0281123 19.4664 -9.47003
RightArm  -81.0436 61.1821 -10.7448
RightForeArm  -17.9658 -3.51833 -6.30442
RightHand  1.1033 2.87383 15.1902
LeftUpLeg  -55.8086 15.9667 -18.059
LeftLeg  42.3244 3.32293 3.64482
LeftFoot  -10.3636 -0.0168999 9.32632
LeftToes  -1.10052e-010 1.3781e-010 -2.1811e-011
510
root  -25.5112 37.0686 -6.56004 18.3877 -72.1628 3.52374
RightUpLeg  -65.1057 -26.6336 16.1945
RightLeg  28.4013 -4.39722 -2.98892
RightFoot  -4.08982 -0.653895 9.82136
RightToes  2.91037e-010 0 -3.6325e-017
Spine  72.8428 -10.208 2.40811
Spine1  12.881 -2.0778 -20.4359
HEad  -39.9138 5.13172 3.7168
LeftShoulder1  0.857356 -13.2516 3.76383
LeftArm  -75.1094 -62.1816 31.1174
LeftForeArm  -18.607 5.00658 1.07177
LeftHand  -0.244104 0.0205437 5.32207
RightShoulder  -0.0146576 18.9677 -9.68368
RightArm  -82.8738 62.0433 -10.8687
RightForeArm  -18.8622 -3.65085 -6.85187
RightHand  1.00726 2.59966 14.3637
LeftUpLeg  -56.233 17.4598 -19.3731
LeftLeg  38.8646 2.14755 2.23255
LeftFoot  -8.31009 -0.249695 11.2733
LeftToes  -1.10052e-010 1.3781e-010 -2.1811e-011
511
root  -24.5591 37.2033 -6.83134 20.199 -71.603 1.72292
RightUpLeg  -63.7119 -23.4127 10.617
RightLeg  38.7757 -4.47889 -4.1261
RightFoot  -4.24453 -0.538559 8.17121
RightToes  2.91037e-010 0 -3.6325e-017
Spine  73.0067 -10.4484 2.64752
Spine1  12.5169 -2.1219 -20.7445
HEad  -40.068 5.97496 3.79308
LeftShoulder1  0.784696 -12.8092 4.11315
LeftArm  -74.4376 -61.8816 31.5381
LeftForeArm  -18.9186 5.26307 0.757813
LeftHand  -0.244104 0.0205437 5.32207
RightShoulder  -0.00114015 18.6937 -9.61572
RightArm  -83.1725 62.7597 -10.7184
RightForeArm  -18.8463 -3.45381 -6.76587
RightHand  0.95139 2.50611 13.7303
LeftUpLeg  -56.7408 17.7637 -20.0585
LeftLeg  35.5995 1.23654 1.31751
LeftFoot  -5.42039 -0.610558 12.4185
LeftToes  -1.10052e-010 1.3781e-010 -2.1811e-011
512
root  -23.6702 37.3493 -7.16913 21.5647 -70.8834 0.601395
RightUpLeg  -62.3855 -21.8695 8.68827
RightLeg  47.2045 -5.19594 -6.36036
RightFoot  -4.80132 -0.400273 6.46956
RightToes  2.91037e-010 0 -3.6325e-017
Spine  73.1419 -10.5505 2.5755
Spine1  12.0139 -2.30147 -20.8695
HEad  -40.3538 6.70964 4.16607
LeftShoulder1  0.705002 -12.5593 4.59314
LeftArm  -73.5191 -61.5069 31.4986
LeftForeArm  -19.1448 5.34583 0.507253
LeftHand  -0.244104 0.0205437 5.32207
RightShoulder  0.00144366 18.622 -9.60245
RightArm  -82.2073 63.1899 -10.042
RightForeArm  -19.1023 -2.73362 -6.16994
RightHand  0.891156 2.25261 13.3023
LeftUpLeg  -57.2218 17.8114 -20.6926
LeftLeg  32.4036 0.0105062 0.368323
LeftFoot  -1.89606 -1.03481 12.6162
LeftToes  -1.10052e-010 1.3781e-010 -2.1811e-011
